<?xml version="1.0" encoding="UTF-8"?>
<svg id="Lockup_Grid" data-name="Lockup Grid" xmlns="http://www.w3.org/2000/svg" viewBox="0 0 523.91 399.83">
  <defs>
    <style>
      .cls-1 {
        stroke: #fff;
        stroke-linecap: round;
        stroke-miterlimit: 10;
        stroke-width: 5.98px;
      }
    </style>
  </defs>
  <path class="cls-1" d="M281.76,241.73l-39.53,87.87-39.52-87.87h0s-39.53-87.88-39.53-87.88v-.02s-39.51-87.84-39.51-87.84c0,0,0-.02.01-.02h78.15c.54,0,1.03.32,1.25.81l39.15,87.08,39.52,87.87s0,0,0,.01Z"/>
  <path class="cls-1" d="M163.17,153.85v.02s-39.5,87.85-39.5,87.85l-39.28-87.34c-.15-.34-.15-.73,0-1.08l39.27-87.32s.02,0,.02,0l39.5,87.83v.02Z"/>
  <path class="cls-1" d="M321.53,153.77l-39.9,87.72s-.02,0-.02,0l-39.18-87.93s0,0,0-.01l39.88-87.77s.02,0,.02,0l39.2,87.99s0,0,0,.01Z"/>
  <path class="cls-1" d="M439.64,242.06l-39.84,87.73-39.21-88.01h0s-39.22-88.02-39.22-88.02v-.02s-39.06-87.98-39.06-87.98c0,0,0-.02.01-.02l78.01.28c.54,0,1.03.32,1.25.81l38.84,87.2h0s39.21,88.02,39.21,88.02c0,0,0,0,0,.01Z"/>
</svg>